# xmcd
#
# Track frame offsets: 
#        150
#        30958
#        59157
#        74416
#        108538
#        123153
#        149371
#        184771
#        220512
#        246523
#        275087
#        300392
#        330636
#
# Disc length: 4637 seconds
#
# Revision: 0
# Processed by: cddbd v1.5.2PL0 Copyright (c) Steve Scherf et al.
# Submitted via: ExactAudioCopy v1.0b3
#
DISCID=c5121b0d
DTITLE=Various Artist - Essential Club Tunes - CD 1
DYEAR=1900
DGENRE=
TTITLE0=Reeloop - Important (Original)
TTITLE1=Sirrow - Pullover (Original Mix)
TTITLE2=Kaiser Souzai - Wild Side (Radio Edit)
TTITLE3=Chris Menzi Pres. Wavetraxx - Das Boot 2003 (Original Mix)
TTITLE4=Kenny Takito - All Systems Go (Radio Mix)
TTITLE5=E-Nomine - Deine Welt (DJ Dean Rmx)
TTITLE6=Audiowarp - The Next Level
TTITLE7=Armani and Ghost - Airport (Essential DJ Team Mix)
TTITLE8=Cenoginerz - You Like The Bass (Original Mix)
TTITLE9=Urban Voodoo - Humanity (R. Wood Vs. DJ Spacecase Rmx)
TTITLE10=Lamonde - Dark Side Of The Moon
TTITLE11=Monika Kruse @ Voodooamt - Highway 4
TTITLE12=Tom Wax - My Definition (Class Of 2002 Mix)
EXTD=
EXTT0=
EXTT1=
EXTT2=
EXTT3=
EXTT4=
EXTT5=
EXTT6=
EXTT7=
EXTT8=
EXTT9=
EXTT10=
EXTT11=
EXTT12=
PLAYORDER=
